<?xml version="1.0" encoding="UTF-8"?>
<svg width="256" height="256" viewBox="0 0 256 256" xmlns="http://www.w3.org/2000/svg">
  <!-- Background -->
  <rect width="256" height="256" rx="32" fill="#2563eb"/>
  
  <!-- Folder icon -->
  <path d="M64 80h40l16 16h72c8.8 0 16 7.2 16 16v96c0 8.8-7.2 16-16 16H64c-8.8 0-16-7.2-16-16V96c0-8.8 7.2-16 16-16z" 
        fill="#60a5fa" stroke="#1d4ed8" stroke-width="2"/>
  
  <!-- Camera lens -->
  <circle cx="160" cy="140" r="32" fill="#374151" stroke="#1f2937" stroke-width="2"/>
  <circle cx="160" cy="140" r="20" fill="#6b7280"/>
  <circle cx="160" cy="140" r="12" fill="#111827"/>
  
  <!-- Photo/Image icon -->
  <rect x="80" y="120" width="48" height="36" rx="4" fill="#fbbf24" stroke="#f59e0b" stroke-width="1"/>
  <circle cx="90" cy="130" r="4" fill="#f59e0b"/>
  <path d="M80 148l12-12 8 8 16-16 12 12v8H80z" fill="#f59e0b"/>
  
  <!-- JPEG text -->
  <text x="128" y="200" font-family="Arial, sans-serif" font-size="18" font-weight="bold" fill="white" text-anchor="middle">JPEG</text>
  
  <!-- Monitor symbol -->
  <rect x="190" y="70" width="4" height="20" fill="#10b981"/>
  <circle cx="192" cy="95" r="3" fill="#10b981"/>
</svg>